<?xml version="1.0" encoding="UTF-8" standalone="no"?>
<!-- Created with Inkscape (http://www.inkscape.org/) -->

<svg
   width="121.243mm"
   height="121.243mm"
   viewBox="0 0 121.243 121.24299"
   version="1.1"
   id="svg1"
   xml:space="preserve"
   inkscape:version="1.4 (e7c3feb1, 2024-10-09)"
   sodipodi:docname="logo.svg"
   inkscape:export-filename="logo.png"
   inkscape:export-xdpi="96"
   inkscape:export-ydpi="96"
   xmlns:inkscape="http://www.inkscape.org/namespaces/inkscape"
   xmlns:sodipodi="http://sodipodi.sourceforge.net/DTD/sodipodi-0.dtd"
   xmlns="http://www.w3.org/2000/svg"
   xmlns:svg="http://www.w3.org/2000/svg"><sodipodi:namedview
     id="namedview1"
     pagecolor="#ffffff"
     bordercolor="#000000"
     borderopacity="0.25"
     inkscape:showpageshadow="2"
     inkscape:pageopacity="0.0"
     inkscape:pagecheckerboard="0"
     inkscape:deskcolor="#d1d1d1"
     inkscape:document-units="mm"
     inkscape:zoom="1.5066999"
     inkscape:cx="321.5637"
     inkscape:cy="245.90166"
     inkscape:window-width="1472"
     inkscape:window-height="890"
     inkscape:window-x="0"
     inkscape:window-y="38"
     inkscape:window-maximized="1"
     inkscape:current-layer="g1" /><defs
     id="defs1" /><g
     inkscape:label="Layer 1"
     inkscape:groupmode="layer"
     id="layer1"
     transform="translate(-81.036672,-64.401401)"><g
       id="g4"
       transform="translate(-7.9615794,-23.297275)"><g
         id="g21"
         transform="matrix(1.0651333,0,0,1.0651333,-7.859541,-8.3963454)"><g
           id="g23"
           transform="translate(14.772395,1.3509838e-4)"><g
             id="g1"
             transform="matrix(1.3967173,0,0,1.3967173,-50.985434,-52.260911)"><path
               id="path5-8"
               style="fill:#f9f9f9;fill-opacity:1;stroke:#f9f9f9;stroke-width:1.24921;stroke-linecap:round;stroke-linejoin:round;stroke-dasharray:none;stroke-opacity:1"
               d="m 116.33731,166.03801 c 24.75923,-3.14462 40.92997,-26.94754 30.88458,-46.73924 -33.85879,-1.85632 -38.15477,25.95441 -30.88458,46.73924 z"
               sodipodi:nodetypes="ccc" /><path
               id="path5"
               style="fill:#d38d5f;fill-opacity:1;stroke:#f9f9f9;stroke-width:0.377813;stroke-linecap:round;stroke-linejoin:round;stroke-dasharray:none;stroke-opacity:1"
               d="m 146.42126,119.38474 c -33.96868,-0.43707 -36.30609,28.64759 -31.75815,46.87112 1.86752,-7.47106 3.26518,-14.94211 7.00854,-22.41317 l -2.40955,-1.38755 1.10656,-1.99302 c 2.85535,0.69674 4.77879,1.86777 7.5637,3.68756 l -1.42491,2.39423 -2.43499,-1.28982 c -4.55603,9.02698 -5.42815,14.60436 -7.30575,21.48813 15.92673,-2.20505 42.15906,-10.84225 30.60276,-46.74163 l -7.1096,4.62525 2.4358,2.72189 -1.63631,1.3804 c -2.74764,-2.64128 -3.35396,-2.78952 -6.82707,-3.55409 l 2.04133,-1.55509 3.1391,0.43867 6.26926,-4.17998 z m -15.30391,7.85266 c 4.70219,0.76849 4.35899,0.98146 7.74938,3.88693 l -1.62898,1.72299 c -2.56648,-2.44292 -4.6757,-2.98697 -7.84107,-4.09731 z m -4.26182,4.04731 c 3.51745,0.95139 5.01534,2.11565 7.81755,4.22864 l -1.5759,2.00584 c -2.32486,-2.10522 -4.97308,-3.05982 -7.84855,-4.11658 z m -3.43155,3.94255 c 3.04262,0.92413 5.52395,2.61154 8.11318,4.37248 l -1.7865,2.22439 c -2.1975,-2.0985 -4.74668,-3.13049 -7.49489,-4.26044 z"
               sodipodi:nodetypes="ccccccccccccccccccccccccccccccccc" /></g><g
             id="g5"
             transform="matrix(1.2608239,0.16505323,-0.16505323,1.2608239,32.846941,-49.042999)"><path
               id="path2"
               style="baseline-shift:baseline;display:inline;overflow:visible;vector-effect:none;fill:#003a73;fill-opacity:1;stroke:#f9f9f9;stroke-width:0.0944847;stroke-opacity:1;enable-background:accumulate;stop-color:#000000"
               d="m 99.999519,145.64702 6.792531,4.38963 c 0.21195,0.13483 0.5105,0.3811 1.05464,0.01 2.52655,-1.72343 2.57732,-2.17413 3.50233,-2.39628 -0.18071,-0.99427 0.16382,-1.10283 0.6782,-4.11766 0.11078,-0.6493 -0.23764,-0.81786 -0.44834,-0.95464 l -6.82008,-4.34671 c -0.74572,1.37473 -2.01928,2.87108 -2.9568,3.30635 -0.11911,1.20374 -0.86334,2.85881 -1.802491,4.10939 z"
               sodipodi:nodetypes="ccscscccc" /><g
               id="g3"
               transform="rotate(-57.308347,119.39528,167.32162)"><path
                 id="path2-2"
                 style="baseline-shift:baseline;display:inline;overflow:visible;vector-effect:none;fill:#f9f9f9;stroke-width:0.0823118;enable-background:accumulate;stop-color:#000000"
                 d="m 131.53712,141.51279 v 2.8e-4 l -3.68828,0.0306 -0.015,5.12544 c 0.001,0.2255 -0.0376,0.57048 0.46836,0.80161 2.36589,1.08079 2.59393,0.87611 3.23614,1.51153 l 0.0315,0.0487 c 0.6464,-0.63955 0.87591,-0.43353 3.25723,-1.52137 0.50924,-0.23263 0.47031,-0.57987 0.47141,-0.80684 l -0.0151,-5.15887 -3.71255,-0.0308 v -2.8e-4 l -0.0168,1.9e-4 z"
                 sodipodi:nodetypes="ccccsccscccccc" /><g
                 id="g2"><rect
                   style="fill:#da2127;fill-opacity:1;stroke:none;stroke-width:2.35063;stroke-linecap:round;stroke-linejoin:round"
                   id="rect1"
                   width="6.1995568"
                   height="3.9049037"
                   x="128.46637"
                   y="142.5798" /><path
                   sodipodi:type="star"
                   style="fill:#da2127;fill-opacity:1;stroke:none;stroke-width:1.88427;stroke-linecap:round;stroke-linejoin:round"
                   id="path1"
                   inkscape:flatsided="true"
                   sodipodi:sides="3"
                   sodipodi:cx="130.84277"
                   sodipodi:cy="146.17191"
                   sodipodi:r1="1.3318985"
                   sodipodi:r2="1.0823939"
                   sodipodi:arg1="1.5560915"
                   sodipodi:arg2="2.6032891"
                   inkscape:rounded="0"
                   inkscape:randomized="0"
                   d="m 130.86236,147.50366 -1.18271,-1.98067 2.30666,-0.0339 z"
                   inkscape:transform-center-x="-0.076890146"
                   inkscape:transform-center-y="0.41735997"
                   transform="matrix(2.6874083,0.01060343,-0.00795103,0.7423969,-218.87873,37.070095)" /></g></g></g></g></g></g></g></svg>
