<?xml version="1.0" encoding="UTF-8" standalone="no"?>
<!-- Created with Inkscape (http://www.inkscape.org/) -->

<svg
   width="121.243mm"
   height="121.243mm"
   viewBox="0 0 121.243 121.24299"
   version="1.1"
   id="svg1"
   xml:space="preserve"
   inkscape:version="1.4 (e7c3feb1, 2024-10-09)"
   sodipodi:docname="logo.svg"
   inkscape:export-filename="logo.png"
   inkscape:export-xdpi="96"
   inkscape:export-ydpi="96"
   xmlns:inkscape="http://www.inkscape.org/namespaces/inkscape"
   xmlns:sodipodi="http://sodipodi.sourceforge.net/DTD/sodipodi-0.dtd"
   xmlns="http://www.w3.org/2000/svg"
   xmlns:svg="http://www.w3.org/2000/svg"><sodipodi:namedview
     id="namedview1"
     pagecolor="#ffffff"
     bordercolor="#000000"
     borderopacity="0.25"
     inkscape:showpageshadow="2"
     inkscape:pageopacity="0.0"
     inkscape:pagecheckerboard="0"
     inkscape:deskcolor="#d1d1d1"
     inkscape:document-units="mm"
     inkscape:zoom="0.98466387"
     inkscape:cx="207.68509"
     inkscape:cy="229.01216"
     inkscape:window-width="1472"
     inkscape:window-height="890"
     inkscape:window-x="0"
     inkscape:window-y="38"
     inkscape:window-maximized="1"
     inkscape:current-layer="g23" /><defs
     id="defs1" /><g
     inkscape:label="Layer 1"
     inkscape:groupmode="layer"
     id="layer1"
     transform="translate(-81.036672,-64.401401)"><g
       id="g4"
       transform="translate(-7.9615794,-23.297275)"><g
         id="g21"
         transform="matrix(1.0651333,0,0,1.0651333,-7.859541,-8.3963454)"><g
           id="g23"
           transform="translate(14.772395,1.3509838e-4)"><g
             id="g24"
             transform="matrix(0.66296718,0,0,0.66296718,53.077651,49.588736)"><g
               id="g22"
               transform="matrix(0.93884964,0,0,0.93884964,8.0343839,7.9992123)"><path
                 id="path2"
                 style="baseline-shift:baseline;display:inline;overflow:visible;vector-effect:none;fill:#003a73;fill-opacity:1;stroke:#f9f9f9;stroke-opacity:1;enable-background:accumulate;stop-color:#000000;stop-opacity:1"
                 d="m 73.340743,95.585897 -0.269751,85.595293 c 0.0139,2.65862 -0.476474,6.72564 5.940206,9.45058 29.793922,12.65246 34.098472,10.52831 41.364942,17.49759 7.8232,-7.29335 10.75966,-4.84513 40.55358,-17.49759 6.41668,-2.72494 5.92631,-6.79196 5.94021,-9.45058 l -0.26975,-85.595293 c -16.50773,1.216302 -37.11629,-1.573723 -46.35257,-7.436133 -11.40281,5.820175 -30.399144,8.652435 -46.906867,7.436133 z"
                 sodipodi:nodetypes="ccscscccc" /><path
                 id="path2-2"
                 style="baseline-shift:baseline;display:inline;overflow:visible;vector-effect:none;fill:#f9f9f9;stroke-width:0.871166;enable-background:accumulate;stop-color:#000000"
                 d="m 119.91934,120.3413 v 0.003 l -39.035786,0.3241 -0.159074,54.24625 c 0.01161,2.38663 -0.397726,6.03782 4.957021,8.48399 25.039969,11.43878 27.453449,9.27256 34.250469,15.99761 l 0.33311,0.51538 c 6.84133,-6.7689 9.27044,-4.58844 34.47365,-16.10181 5.38965,-2.46211 4.97762,-6.13716 4.9893,-8.53934 l -0.16001,-54.60005 -39.29264,-0.32613 v -0.003 l -0.17779,0.002 z"
                 sodipodi:nodetypes="ccccsccscccccc" /></g><path
               id="path5-8"
               style="fill:#f9f9f9;fill-opacity:1;stroke:#f9f9f9;stroke-width:1.88427;stroke-linecap:round;stroke-linejoin:round;stroke-dasharray:none;stroke-opacity:1"
               d="M 97.70211,180.21488 C 135.0482,175.47163 159.43966,139.568 144.2875,109.71479 93.2159,106.91478 86.735971,148.86365 97.70211,180.21488 Z"
               sodipodi:nodetypes="ccc" /><path
               id="path5"
               style="fill:#da2127;fill-opacity:1;stroke:#f9f9f9;stroke-width:0.569882;stroke-linecap:round;stroke-linejoin:round;stroke-dasharray:none;stroke-opacity:1"
               d="m 143.07985,109.84447 c -51.23734,-0.65927 -54.763029,43.21117 -47.903045,70.699 2.816902,-11.26912 4.925105,-22.53823 10.571475,-33.80735 l -3.6345,-2.09295 1.66911,-3.0062 c 4.30692,1.05094 7.20818,2.81728 11.40886,5.5622 l -2.14929,3.61138 -3.67287,-1.94552 c -6.87218,13.61602 -8.18766,22.02878 -11.019776,32.41205 24.023406,-3.32602 63.591466,-16.35413 46.160286,-70.50368 l -10.7239,6.97659 3.67408,4.10561 -2.46816,2.08216 c -4.14446,-3.98402 -5.05901,-4.20763 -10.29775,-5.36089 l 3.07908,-2.34564 4.73493,0.66168 9.45637,-6.30496 z m -23.08396,11.84472 c 7.09265,1.15917 6.57497,1.48041 11.68894,5.86293 l -2.45711,2.59891 c -3.8712,-3.68483 -7.05269,-4.50546 -11.82724,-6.18027 z m -6.4284,6.10484 c 5.30562,1.43505 7.56499,3.19119 11.79176,6.37836 l -2.37705,3.02554 c -3.50675,-3.17545 -7.50124,-4.61534 -11.83852,-6.20932 z m -5.17605,5.94682 c 4.58939,1.39394 8.33216,3.93917 12.23768,6.59532 l -2.69471,3.35521 c -3.31464,-3.16532 -7.15974,-4.72194 -11.30507,-6.42632 z"
               sodipodi:nodetypes="ccccccccccccccccccccccccccccccccc" /></g></g></g></g></g></svg>
